<svg xmlns="http://www.w3.org/2000/svg" viewBox="0 0 64 64" width="64" height="64">
  <defs>
    <linearGradient id="saramsaBarGrad" x1="257.266" y1="125.257" x2="421.266" y2="125.257" gradientUnits="userSpaceOnUse">
      <stop offset="0%" stop-color="#FE3C36"/>
      <stop offset="100%" stop-color="#F1A452"/>
    </linearGradient>
  </defs>
  <circle cx="32" cy="32" r="32" fill="#0a0a0a"/>
  <g transform="translate(32 32) scale(0.14) translate(-261 -218.5)">
    <path d="M150.651 104.182C154.538 103.525 173.241 103.763 177.948 103.765L234.689 103.831L234.659 146.358L189.903 146.229C179.512 146.204 146.919 142.738 151.863 164.632C155.114 179.035 183.227 192.802 195.705 202.571C213.459 216.47 238.163 232.68 242.372 257.307C246.396 299.224 227.255 326.99 187.288 333.613C159.813 334.625 128.395 333.888 100.63 333.88L100.611 287.987L150.377 288.091C162.906 288.113 194.038 292.714 191.67 271.227C190.454 260.201 174.091 250.406 165.43 244.293C139.888 226.266 105.346 205.721 100.555 171.927C96.3081 139.083 116.767 108.356 150.651 104.182Z" fill="white"/>
    <path d="M334.313 170.605C337.125 170.274 339.952 170.099 342.783 170.081C364.272 170.041 387.079 176.812 402.547 192.301C410.852 200.647 416.784 211.058 419.729 222.459C423.234 235.921 422.251 258.778 422.242 273.375L422.185 333.891L380.051 333.883C380.04 314.781 382.145 245.059 378.074 233.014C375.565 225.59 370.386 219.484 363.307 216.065C354.596 211.859 340.984 210.715 331.898 213.932C321.267 217.695 314.89 226.294 310.257 236.081C306.456 245.866 305.458 256.99 308.809 267.053C311.873 276.374 318.575 284.06 327.391 288.363C341.012 295.092 354.129 292.136 367.721 287.537L367.718 331.258C341.791 336.679 314.729 337.549 293.496 319.7C240.397 275.065 262.698 179.467 334.313 170.605Z" fill="white"/>
    <rect x="257.266" y="103.757" width="164" height="43" fill="url(#saramsaBarGrad)"/>
  </g>
</svg>
