<svg width="1736" height="436" viewBox="0 0 1736 436" fill="none" xmlns="http://www.w3.org/2000/svg">
<path d="M859.625 194.389C873.336 178.934 889.43 169.828 910.531 170.023C927.164 170.175 944.422 175.359 956.375 187.36C962.922 193.905 967.484 202.168 969.547 211.194C971.719 220.794 970.906 245.282 970.898 256.441L970.875 333.884L926.922 333.885L926.953 268.674C926.984 256.493 927.562 243.255 926.242 231.21C924.719 217.203 913.391 210.088 899.867 212.558C890.336 214.297 886.242 218.957 880.836 226.382L880.812 273.074L880.805 333.888L836.445 333.865L836.516 266.943C836.52 254.644 836.812 242.928 835.715 230.698C833.457 205.546 793.165 205.648 791.004 231.034C789.952 243.388 790.181 254.864 790.184 267.217L790.251 333.888L746.327 333.88L746.255 255.486C746.202 222.28 741.149 188.01 781.011 174.583C788.229 172.151 793.423 171.445 801.041 170.637C824.877 167.161 843.469 177.747 859.625 194.389Z" fill="white"/>
<path d="M150.651 104.182C154.538 103.525 173.241 103.763 177.948 103.765L234.689 103.831L234.659 146.358L189.903 146.229C179.512 146.204 146.919 142.738 151.863 164.632C155.114 179.035 183.227 192.802 195.705 202.571C213.459 216.47 238.163 232.68 242.372 257.307C246.396 299.224 227.255 326.99 187.288 333.613C159.813 334.625 128.395 333.888 100.63 333.88L100.611 287.987L150.377 288.091C162.906 288.113 194.038 292.714 191.67 271.227C190.454 260.201 174.091 250.406 165.43 244.293C139.888 226.266 105.346 205.721 100.555 171.927C96.3081 139.083 116.767 108.356 150.651 104.182Z" fill="white"/>
<path d="M1195.3 170.602C1217.79 166.88 1247.59 176.271 1263.73 192.467C1271.94 200.762 1277.81 211.086 1280.74 222.387C1284.42 236.455 1283.32 258.574 1283.31 273.738L1283.27 333.884L1241 333.888C1240.99 314.882 1243.06 244.307 1238.92 232.548C1236.43 225.277 1231.11 219.317 1224.17 216.012C1219.51 213.798 1215.43 213.047 1210.39 212.497C1190.66 210.346 1179.43 218.882 1171.2 236.248C1167.51 246.451 1166.34 256.564 1169.83 267.051C1172.9 276.338 1179.57 284.003 1188.34 288.318C1201.98 295.093 1215.04 292.173 1228.66 287.556V331.266C1202.91 336.667 1176.02 337.539 1154.87 319.947C1101.41 275.467 1123.55 179.571 1195.3 170.602Z" fill="white"/>
<path d="M1470.31 170.603C1494.69 168.049 1520.6 174.865 1538.48 192.289C1562.31 215.514 1558.27 246.256 1558.24 276.65L1558.19 333.888L1515.98 333.889C1515.96 314.499 1518.07 244.779 1513.88 232.676C1511.43 225.366 1506.11 219.364 1499.15 216.041C1494.57 213.859 1490.45 213.072 1485.46 212.512C1465.73 210.298 1454.26 218.849 1446.09 236.349C1442.39 246.608 1441.24 256.586 1444.79 267.121C1447.86 276.404 1454.55 284.057 1463.33 288.355C1476.96 295.089 1490.01 292.165 1503.62 287.551L1503.6 331.312C1497.95 332.471 1492.5 333.526 1486.79 334.278C1443.18 340.027 1406.51 312.02 1401.3 268.049C1396.77 229.701 1413.06 190.565 1450.36 175.352C1457.27 172.529 1462.93 171.51 1470.31 170.603Z" fill="white"/>
<path d="M334.313 170.605C337.125 170.274 339.952 170.099 342.783 170.081C364.272 170.041 387.079 176.812 402.547 192.301C410.852 200.647 416.784 211.058 419.729 222.459C423.234 235.921 422.251 258.778 422.242 273.375L422.185 333.891L380.051 333.883C380.04 314.781 382.145 245.059 378.074 233.014C375.565 225.59 370.386 219.484 363.307 216.065C354.596 211.859 340.984 210.715 331.898 213.932C321.267 217.695 314.89 226.294 310.257 236.081C306.456 245.866 305.458 256.99 308.809 267.053C311.873 276.374 318.575 284.06 327.391 288.363C341.012 295.092 354.129 292.136 367.721 287.537L367.718 331.258C341.791 336.679 314.729 337.549 293.496 319.7C240.397 275.065 262.698 179.467 334.313 170.605Z" fill="white"/>
<path d="M627.333 170.603C651.262 168.127 678.216 174.876 695.544 192.261C703.88 200.642 709.838 211.089 712.809 222.53C716.322 236.013 715.269 258.477 715.259 273.089L715.201 333.879L673.113 333.89C673.1 314.468 675.212 244.688 670.952 232.593C668.461 225.308 663.141 219.333 656.193 216.017C651.541 213.802 647.455 213.05 642.419 212.496C622.766 210.334 611.339 218.919 603.204 236.294C599.496 246.518 598.357 256.718 601.86 267.213C604.905 276.418 611.535 284.004 620.25 288.251C633.986 295.076 647.007 292.154 660.745 287.554L660.751 331.255C634.884 336.674 607.887 337.548 586.697 319.804C533.505 275.266 555.675 179.487 627.333 170.603Z" fill="white"/>
<path d="M1037.45 174.449C1052.84 173.195 1082.47 174.096 1098.9 174.126L1098.88 213.426C1092.96 213.451 1020.94 208.764 1042.31 225.695C1059.67 239.444 1103.15 249.83 1106.98 278.363C1111.23 310.037 1091.25 328.257 1062.08 333.602C1040.57 334.426 1016.1 333.881 994.383 333.87L994.367 294.405C1012.71 294.376 1031.91 294.583 1050.27 294.32C1055.23 294.249 1062.07 289.631 1060.8 283.992C1059.91 280.117 1055.83 276.749 1052.73 274.452C1034.06 261.29 1002.27 253.058 996.695 227.601C994.672 215.66 997.141 203.084 1003.96 193.037C1012.23 180.841 1023.75 177.092 1037.45 174.449Z" fill="white"/>
<path d="M531.087 172.151C534.391 171.953 539.093 172.029 542.503 171.982L542.474 216.965C541.628 216.951 540.781 216.943 539.935 216.941C533.515 216.926 527.394 216.63 521.155 218.357C493.202 226.096 497.316 257.208 497.323 279.377L497.352 333.893L452.48 333.862L452.478 316.827L452.444 174.125L492.492 174.125C492.459 184.206 492.345 194.301 492.723 204.374C501.377 185.024 509.276 175.247 531.087 172.151Z" fill="white"/>
<path d="M1588.8 174.148L1630.91 174.126L1630.9 333.855L1588.8 333.879V174.148Z" fill="white"/>
<path d="M1340.74 280.576C1355.77 278.709 1369.48 289.343 1371.41 304.365C1373.34 319.386 1362.77 333.142 1347.75 335.137C1332.65 337.143 1318.8 326.49 1316.85 311.378C1314.91 296.266 1325.62 282.454 1340.74 280.576Z" fill="white"/>
<path d="M1603.84 100.169C1641.12 96.9041 1645.55 141.898 1616.54 152.317C1610.25 153.223 1604.88 153.304 1599 150.641C1593.13 147.984 1588.59 143.069 1586.41 137.015C1580.29 120.516 1587.67 106.072 1603.84 100.169Z" fill="white"/>
<rect x="257.266" y="103.757" width="164" height="43" fill="url(#paint0_linear_1_27)"/>
<defs>
<linearGradient id="paint0_linear_1_27" x1="257.266" y1="125.257" x2="421.266" y2="125.257" gradientUnits="userSpaceOnUse">
<stop stop-color="#FE3C36"/>
<stop offset="1" stop-color="#F1A452"/>
</linearGradient>
</defs>
</svg>
